#!OML:ASF X:\für Bonn\!DataBase\2005_08_11_Bastian_Final\c3d\Bastian.ASF
:FULLY-SPECIFIED
:DEGREES
108
root 1.2778 13.9417 0.769996 172.89 -3.80994 -175.522
lowerback 28.5941 -1.47263 0.770761
upperback 3.95586 -2.57362 1.08226
thorax -11.3586 -1.61997 1.83275
lowerneck -21.4244 -7.53345 -4.51695
upperneck -3.49951 -8.0907 10.313
head 2.91767 -2.93036 3.24295
rclavicle -3.98563e-014 1.47101e-014
rhumerus 76.136 0.723049 21.2246
rradius 40.692
rwrist -71.0715
rhand -46.2119 -3.77502
rfingers 7.12502
rthumb -18.9495 -32.872
lclavicle -3.98563e-014 1.47101e-014
lhumerus 67.3694 -13.4495 -50.4495
lradius 33.4459
lwrist 43.4656
lhand -45.3408 17.4679
lfingers 7.12502
lthumb -18.1115 46.6446
rfemur -37.1358 -1.60224 26.9522
rtibia 88.5493
rfoot -37.5846 -15.1127
rtoes -5.92678
lfemur -37.586 10.0296 -15.9972
ltibia 89.8591
lfoot -34.8937 -12.5941
ltoes 0.926576
109
root 1.27006 14.2104 0.737497 173.012 -3.96405 -175.529
lowerback 28.0569 -1.51973 0.705707
upperback 3.88861 -2.62422 1.07282
thorax -11.1573 -1.62833 1.85258
lowerneck -21.5035 -7.47286 -4.38495
upperneck -3.14028 -8.09713 10.1376
head 3.02377 -2.94944 3.16108
rclavicle -8.54774e-015 9.54166e-015
rhumerus 76.422 1.23783 21.2331
rradius 40.6278
rwrist -71.1807
rhand -46.1625 -3.80152
rfingers 7.12502
rthumb -18.902 -32.9031
lclavicle -8.54774e-015 9.54166e-015
lhumerus 68.1153 -13.744 -50.9605
lradius 33.4195
lwrist 44.2021
lhand -45.1575 17.57
lfingers 7.12502
lthumb -17.9352 46.763
rfemur -35.5195 -1.63242 26.7839
rtibia 85.624
rfoot -36.7298 -14.7649
rtoes -6.14859
lfemur -35.8294 9.62277 -16.0044
ltibia 86.566
lfoot -34.0851 -12.6598
ltoes 2.15458
110
root 1.26283 14.4729 0.704844 173.128 -4.12856 -175.551
lowerback 27.5137 -1.56801 0.621181
upperback 3.814 -2.68079 1.06051
thorax -10.9592 -1.63838 1.88185
lowerneck -21.5528 -7.40604 -4.24773
upperneck -2.76969 -8.10047 9.94429
head 3.12794 -2.97026 3.07343
rclavicle -1.17283e-014 3.57812e-015
rhumerus 76.7365 1.83091 21.1509
rradius 40.564
rwrist -71.2663
rhand -46.0832 -3.86788
rfingers 7.12502
rthumb -18.8257 -32.9769
lclavicle -1.17283e-014 3.57812e-015
lhumerus 68.9329 -14.0736 -51.3242
lradius 33.2519
lwrist 44.7116
lhand -44.9078 17.5335
lfingers 7.12502
lthumb -17.6949 46.7483
rfemur -33.9249 -1.68415 26.6033
rtibia 82.7183
rfoot -35.8762 -14.3781
rtoes -6.39648
lfemur -34.0875 9.26067 -16.0194
ltibia 83.286
lfoot -33.1818 -12.6827
ltoes 2.81926
111
root 1.25547 14.7234 0.670418 173.246 -4.27155 -175.539
lowerback 26.8981 -1.61976 0.586322
upperback 3.75962 -2.7297 1.05258
thorax -10.7007 -1.64899 1.87989
lowerneck -21.6035 -7.35104 -4.13604
upperneck -2.41778 -8.10927 9.76725
head 3.22918 -2.9919 2.99448
rclavicle 2.14687e-014 -2.3059e-014
rhumerus 77.0563 2.45698 20.9368
rradius 40.5001
rwrist -71.2983
rhand -45.9863 -3.92972
rfingers 7.12502
rthumb -18.7326 -33.0477
lclavicle 2.14687e-014 -2.3059e-014
lhumerus 69.7334 -14.4055 -51.6291
lradius 33.0736
lwrist 45.0395
lhand -44.5935 17.5152
lfingers 7.12502
lthumb -17.3925 46.7571
rfemur -32.3558 -1.74896 26.4636
rtibia 79.845
rfoot -35.0109 -13.9657
rtoes -6.42086
lfemur -32.3941 8.98258 -15.9851
ltibia 80.0725
lfoot -32.1994 -12.6402
ltoes 2.54902
112
root 1.24792 14.9615 0.636299 173.38 -4.44274 -175.541
lowerback 26.2018 -1.67906 0.541495
upperback 3.72403 -2.79361 1.03941
thorax -10.3768 -1.66786 1.87752
lowerneck -21.7279 -7.28193 -3.93105
upperneck -2.01068 -8.11918 9.49616
head 3.349 -3.01678 2.86985
rclavicle 1.54058e-014 -2.38542e-014
rhumerus 77.4142 3.0945 20.6245
rradius 40.4056
rwrist -71.2932
rhand -45.8838 -3.9578
rfingers 7.12502
rthumb -18.6339 -33.0853
lclavicle 1.54058e-014 -2.38542e-014
lhumerus 70.4887 -14.7412 -51.985
lradius 32.9272
lwrist 45.3167
lhand -44.2926 17.4378
lfingers 7.12502
lthumb -17.1028 46.7051
rfemur -30.8493 -1.86193 26.3129
rtibia 77.0203
rfoot -34.1329 -13.5673
rtoes -6.62449
lfemur -30.7799 8.70957 -15.9564
ltibia 76.9361
lfoot -31.096 -12.5918
ltoes 1.65126
113
root 1.24036 15.1926 0.601123 173.531 -4.59481 -175.506
lowerback 25.4594 -1.73999 0.525754
upperback 3.68299 -2.84796 1.05206
thorax -10.0333 -1.68295 1.88098
lowerneck -21.825 -7.23044 -3.82496
upperneck -1.60482 -8.13366 9.29568
head 3.47331 -3.04116 2.78239
rclavicle -1.63997e-014 -1.23246e-014
rhumerus 77.7526 3.69531 20.4765
rradius 40.3713
rwrist -71.4781
rhand -45.8217 -4.02176
rfingers 7.12502
rthumb -18.5742 -33.155
lclavicle -1.63997e-014 -1.23246e-014
lhumerus 71.2261 -15.099 -52.4552
lradius 32.8043
lwrist 45.6117
lhand -43.9895 17.2394
lfingers 7.12502
lthumb -16.8111 46.5317
rfemur -29.3655 -1.95829 26.2078
rtibia 74.1828
rfoot -33.2009 -13.1628
rtoes -6.89065
lfemur -29.2157 8.4708 -15.8701
ltibia 73.8502
lfoot -29.8641 -12.6563
ltoes 0.558559
114
root 1.23267 15.4245 0.564446 173.661 -4.74286 -175.466
lowerback 24.7229 -1.79883 0.522455
upperback 3.6541 -2.90097 1.04915
thorax -9.67901 -1.69958 1.85856
lowerneck -21.961 -7.17617 -3.67392
upperneck -1.17009 -8.15392 9.07806
head 3.61006 -3.0673 2.68096
rclavicle -4.40308e-014 1.39149e-014
rhumerus 78.0401 4.27195 20.3276
rradius 40.3646
rwrist -71.6923
rhand -45.7236 -4.049
rfingers 7.12502
rthumb -18.4798 -33.1912
lclavicle -4.40308e-014 1.39149e-014
lhumerus 71.9131 -15.3989 -52.9393
lradius 32.7259
lwrist 45.8318
lhand -43.7114 17.0441
lfingers 7.12502
lthumb -16.5434 46.3589
rfemur -27.8255 -2.05354 26.1152
rtibia 71.3015
rfoot -32.236 -12.7577
rtoes -7.06174
lfemur -27.6131 8.24465 -15.7558
ltibia 70.7734
lfoot -28.5628 -12.7604
ltoes -0.448689
115
root 1.22341 15.6576 0.524903 173.808 -4.89149 -175.387
lowerback 23.9575 -1.8652 0.582555
upperback 3.6145 -2.94583 1.05054
thorax -9.32277 -1.71369 1.80015
lowerneck -22.0461 -7.14097 -3.57029
upperneck -0.742584 -8.19307 8.91651
head 3.74394 -3.10156 2.60308
rclavicle -2.96189e-014 -5.96354e-015
rhumerus 78.3134 4.89023 20.1896
rradius 40.3363
rwrist -71.8262
rhand -45.72 -4.09236
rfingers 7.12502
rthumb -18.4764 -33.2349
lclavicle -2.96189e-014 -5.96354e-015
lhumerus 72.6172 -15.6866 -53.4847
lradius 32.6898
lwrist 46.1212
lhand -43.5375 16.7966
lfingers 7.12502
lthumb -16.376 46.1253
rfemur -26.2579 -2.14161 26.0652
rtibia 68.3635
rfoot -31.2099 -12.388
rtoes -7.2809
lfemur -26.0186 7.99837 -15.6022
ltibia 67.7043
lfoot -27.2491 -12.8781
ltoes -1.92538
116
root 1.21288 15.8821 0.483145 173.924 -5.04726 -175.28
lowerback 23.2089 -1.9421 0.660836
upperback 3.58695 -3.00331 1.07516
thorax -8.95979 -1.73566 1.76072
lowerneck -22.1366 -7.0908 -3.51449
upperneck -0.322933 -8.19864 8.77993
head 3.8779 -3.11735 2.54386
rclavicle 2.0773e-014 1.39149e-014
rhumerus 78.651 5.53885 19.9392
rradius 40.2277
rwrist -71.7672
rhand -45.7054 -4.13509
rfingers 7.12502
rthumb -18.4623 -33.279
lclavicle 2.0773e-014 1.39149e-014
lhumerus 73.3044 -16.0084 -53.8904
lradius 32.6236
lwrist 46.3017
lhand -43.4384 16.5048
lfingers 7.12502
lthumb -16.2805 45.8413
rfemur -24.6652 -2.2261 26.0485
rtibia 65.4237
rfoot -30.163 -12.0453
rtoes -7.62784
lfemur -24.4129 7.75454 -15.4113
ltibia 64.691
lfoot -26.0122 -13.02
ltoes -3.86382
117
root 1.20354 16.0932 0.439257 174.032 -5.21302 -175.108
lowerback 22.4307 -2.02153 0.807129
upperback 3.57825 -3.05326 1.10174
thorax -8.56228 -1.75752 1.67927
lowerneck -22.2033 -7.0521 -3.42329
upperneck 0.0728511 -8.2255 8.66135
head 4.00218 -3.14219 2.48315
rclavicle -4.17448e-014 1.43125e-014
rhumerus 78.9345 6.22342 19.5531
rradius 40.0662
rwrist -71.4612
rhand -45.7051 -4.21909
rfingers 7.12502
rthumb -18.462 -33.363
lclavicle -4.17448e-014 1.43125e-014
lhumerus 73.9802 -16.2899 -54.2163
lradius 32.5612
lwrist 46.452
lhand -43.442 16.2134
lfingers 7.12502
lthumb -16.284 45.5496
rfemur -23.0893 -2.31353 26.1176
rtibia 62.5241
rfoot -29.0942 -11.7308
rtoes -8.0543
lfemur -22.8571 7.46933 -15.1375
ltibia 61.7695
lfoot -24.8726 -13.1472
ltoes -5.8946
